<mxfile host="Electron" modified="2023-06-14T23:01:56.437Z" agent="Mozilla/5.0 (Macintosh; Intel Mac OS X 10_15_7) AppleWebKit/537.36 (KHTML, like Gecko) draw.io/21.4.0 Chrome/112.0.5615.204 Electron/24.5.1 Safari/537.36" etag="WLBr5JgpQH1YxEMdRpMl" version="21.4.0" type="device">
  <diagram name="Page-1" id="oDH5faH6a1xl9ywMQUjl">
    <mxGraphModel dx="743" dy="596" grid="1" gridSize="10" guides="1" tooltips="1" connect="1" arrows="1" fold="1" page="1" pageScale="1" pageWidth="850" pageHeight="1100" math="0" shadow="0">
      <root>
        <mxCell id="0" />
        <mxCell id="1" parent="0" />
        <mxCell id="bBilR6eeZE_fRTAzdwb9-1" value="" style="rounded=1;whiteSpace=wrap;html=1;arcSize=5;fontFamily=SF Mono;fillColor=#CCFFCC;fontColor=#333333;strokeColor=#666666;" vertex="1" parent="1">
          <mxGeometry x="160" y="240" width="60" height="250" as="geometry" />
        </mxCell>
        <mxCell id="bBilR6eeZE_fRTAzdwb9-3" value="OPD_1" style="rounded=1;whiteSpace=wrap;html=1;arcSize=5;fontFamily=SF Mono;fillColor=#CCFFCC;fontColor=#333333;strokeColor=#666666;" vertex="1" parent="1">
          <mxGeometry x="160" y="240" width="60" height="50" as="geometry" />
        </mxCell>
        <mxCell id="bBilR6eeZE_fRTAzdwb9-4" value="OPD_2" style="rounded=1;whiteSpace=wrap;html=1;arcSize=5;fontFamily=SF Mono;fillColor=#CCFFCC;fontColor=#333333;strokeColor=#666666;" vertex="1" parent="1">
          <mxGeometry x="160" y="290" width="60" height="50" as="geometry" />
        </mxCell>
        <mxCell id="bBilR6eeZE_fRTAzdwb9-5" value="OPD_3" style="rounded=1;whiteSpace=wrap;html=1;arcSize=5;fontFamily=SF Mono;fillColor=#CCFFCC;fontColor=#333333;strokeColor=#666666;" vertex="1" parent="1">
          <mxGeometry x="160" y="340" width="60" height="50" as="geometry" />
        </mxCell>
        <mxCell id="bBilR6eeZE_fRTAzdwb9-6" value="..." style="rounded=1;whiteSpace=wrap;html=1;arcSize=5;fontFamily=SF Mono;fillColor=#CCFFCC;fontColor=#333333;strokeColor=#666666;" vertex="1" parent="1">
          <mxGeometry x="160" y="390" width="60" height="50" as="geometry" />
        </mxCell>
        <mxCell id="bBilR6eeZE_fRTAzdwb9-7" value="OPD_N" style="rounded=1;whiteSpace=wrap;html=1;arcSize=5;fontFamily=SF Mono;fillColor=#CCFFCC;fontColor=#333333;strokeColor=#666666;" vertex="1" parent="1">
          <mxGeometry x="160" y="440" width="60" height="50" as="geometry" />
        </mxCell>
        <mxCell id="bBilR6eeZE_fRTAzdwb9-8" value="" style="rounded=1;whiteSpace=wrap;html=1;arcSize=5;fontFamily=SF Mono;fillColor=#CCFFFF;" vertex="1" parent="1">
          <mxGeometry x="430" y="240" width="60" height="250" as="geometry" />
        </mxCell>
        <mxCell id="bBilR6eeZE_fRTAzdwb9-9" value="OP_a" style="rounded=1;whiteSpace=wrap;html=1;arcSize=5;fontFamily=SF Mono;fillColor=#CCFFFF;" vertex="1" parent="1">
          <mxGeometry x="430" y="240" width="60" height="50" as="geometry" />
        </mxCell>
        <mxCell id="bBilR6eeZE_fRTAzdwb9-10" value="OP_b" style="rounded=1;whiteSpace=wrap;html=1;arcSize=5;fontFamily=SF Mono;fillColor=#CCFFFF;" vertex="1" parent="1">
          <mxGeometry x="430" y="290" width="60" height="50" as="geometry" />
        </mxCell>
        <mxCell id="bBilR6eeZE_fRTAzdwb9-11" value="OP_c" style="rounded=1;whiteSpace=wrap;html=1;arcSize=5;fontFamily=SF Mono;fillColor=#CCFFFF;" vertex="1" parent="1">
          <mxGeometry x="430" y="340" width="60" height="50" as="geometry" />
        </mxCell>
        <mxCell id="bBilR6eeZE_fRTAzdwb9-12" value="..." style="rounded=1;whiteSpace=wrap;html=1;arcSize=5;fontFamily=SF Mono;fillColor=#CCFFFF;" vertex="1" parent="1">
          <mxGeometry x="430" y="390" width="60" height="50" as="geometry" />
        </mxCell>
        <mxCell id="bBilR6eeZE_fRTAzdwb9-13" value="OP_X" style="rounded=1;whiteSpace=wrap;html=1;arcSize=5;fontFamily=SF Mono;fillColor=#CCFFFF;" vertex="1" parent="1">
          <mxGeometry x="430" y="440" width="60" height="50" as="geometry" />
        </mxCell>
        <mxCell id="bBilR6eeZE_fRTAzdwb9-14" value="Stack" style="text;html=1;strokeColor=none;fillColor=none;align=center;verticalAlign=middle;whiteSpace=wrap;rounded=0;fontFamily=SF Mono;" vertex="1" parent="1">
          <mxGeometry x="160" y="200" width="60" height="30" as="geometry" />
        </mxCell>
        <mxCell id="bBilR6eeZE_fRTAzdwb9-15" value="Code" style="text;html=1;strokeColor=none;fillColor=none;align=center;verticalAlign=middle;whiteSpace=wrap;rounded=0;fontFamily=SF Mono;" vertex="1" parent="1">
          <mxGeometry x="430" y="200" width="60" height="30" as="geometry" />
        </mxCell>
        <mxCell id="bBilR6eeZE_fRTAzdwb9-16" value="" style="endArrow=classic;html=1;rounded=0;entryX=0;entryY=0;entryDx=0;entryDy=0;" edge="1" parent="1" target="bBilR6eeZE_fRTAzdwb9-3">
          <mxGeometry width="50" height="50" relative="1" as="geometry">
            <mxPoint x="80" y="240" as="sourcePoint" />
            <mxPoint x="120" y="240" as="targetPoint" />
          </mxGeometry>
        </mxCell>
        <mxCell id="bBilR6eeZE_fRTAzdwb9-17" value="SP" style="text;html=1;strokeColor=none;fillColor=none;align=center;verticalAlign=middle;whiteSpace=wrap;rounded=0;fontFamily=SF Mono;" vertex="1" parent="1">
          <mxGeometry x="90" y="210" width="60" height="30" as="geometry" />
        </mxCell>
        <mxCell id="bBilR6eeZE_fRTAzdwb9-18" value="" style="endArrow=classic;html=1;rounded=0;entryX=1;entryY=0;entryDx=0;entryDy=0;" edge="1" parent="1" target="bBilR6eeZE_fRTAzdwb9-10">
          <mxGeometry width="50" height="50" relative="1" as="geometry">
            <mxPoint x="570" y="290" as="sourcePoint" />
            <mxPoint x="440" y="430" as="targetPoint" />
          </mxGeometry>
        </mxCell>
        <mxCell id="bBilR6eeZE_fRTAzdwb9-19" value="PC" style="text;html=1;strokeColor=none;fillColor=none;align=center;verticalAlign=middle;whiteSpace=wrap;rounded=0;fontFamily=SF Mono;" vertex="1" parent="1">
          <mxGeometry x="500" y="260" width="60" height="30" as="geometry" />
        </mxCell>
        <mxCell id="bBilR6eeZE_fRTAzdwb9-20" value="instruction cycle" style="ellipse;whiteSpace=wrap;html=1;aspect=fixed;fontFamily=SF Mono;fillColor=#dae8fc;strokeColor=#6c8ebf;" vertex="1" parent="1">
          <mxGeometry x="270" y="70" width="110" height="110" as="geometry" />
        </mxCell>
        <mxCell id="bBilR6eeZE_fRTAzdwb9-21" value="" style="endArrow=classic;html=1;rounded=0;entryX=0;entryY=0.5;entryDx=0;entryDy=0;exitX=0.5;exitY=0;exitDx=0;exitDy=0;strokeColor=#00CC00;" edge="1" parent="1" source="bBilR6eeZE_fRTAzdwb9-14" target="bBilR6eeZE_fRTAzdwb9-20">
          <mxGeometry width="50" height="50" relative="1" as="geometry">
            <mxPoint x="190" y="170" as="sourcePoint" />
            <mxPoint x="240" y="120" as="targetPoint" />
            <Array as="points">
              <mxPoint x="190" y="125" />
            </Array>
          </mxGeometry>
        </mxCell>
        <mxCell id="bBilR6eeZE_fRTAzdwb9-22" value="" style="endArrow=classic;html=1;rounded=0;exitX=0.421;exitY=0.991;exitDx=0;exitDy=0;entryX=1;entryY=0.5;entryDx=0;entryDy=0;strokeColor=#00CC00;exitPerimeter=0;" edge="1" parent="1" source="bBilR6eeZE_fRTAzdwb9-20" target="bBilR6eeZE_fRTAzdwb9-14">
          <mxGeometry width="50" height="50" relative="1" as="geometry">
            <mxPoint x="400" y="480" as="sourcePoint" />
            <mxPoint x="450" y="430" as="targetPoint" />
            <Array as="points">
              <mxPoint x="316" y="215" />
            </Array>
          </mxGeometry>
        </mxCell>
        <mxCell id="bBilR6eeZE_fRTAzdwb9-24" value="" style="endArrow=classic;html=1;rounded=0;entryX=0;entryY=0.5;entryDx=0;entryDy=0;exitX=0.5;exitY=0;exitDx=0;exitDy=0;strokeColor=#007FFF;" edge="1" parent="1" source="bBilR6eeZE_fRTAzdwb9-15">
          <mxGeometry width="50" height="50" relative="1" as="geometry">
            <mxPoint x="460" y="200" as="sourcePoint" />
            <mxPoint x="380" y="125" as="targetPoint" />
            <Array as="points">
              <mxPoint x="460" y="125" />
            </Array>
          </mxGeometry>
        </mxCell>
        <mxCell id="bBilR6eeZE_fRTAzdwb9-25" value="" style="endArrow=classic;html=1;rounded=0;exitX=0.573;exitY=0.997;exitDx=0;exitDy=0;entryX=0;entryY=0.5;entryDx=0;entryDy=0;strokeColor=#007FFF;exitPerimeter=0;" edge="1" parent="1" source="bBilR6eeZE_fRTAzdwb9-20" target="bBilR6eeZE_fRTAzdwb9-15">
          <mxGeometry width="50" height="50" relative="1" as="geometry">
            <mxPoint x="320" y="180" as="sourcePoint" />
            <mxPoint x="450" y="430" as="targetPoint" />
            <Array as="points">
              <mxPoint x="333" y="215" />
            </Array>
          </mxGeometry>
        </mxCell>
      </root>
    </mxGraphModel>
  </diagram>
</mxfile>
